REM DIRINDEX 1\2,1\3,1\4,1\5
REM DIRNAME cjc046,folder01,folder02,folder03,folder04
TITLE ""
FILE "089.mp3" MP3
  TRACK 01 AUDIO
    TITLE "0:"
    INDEX 01 00:00:00
  TRACK 02 AUDIO
    TITLE "2:cjc046_1847"
    INDEX 01 00:00:09
  TRACK 03 AUDIO
    TITLE "0:"
    INDEX 01 00:01:11
  TRACK 04 AUDIO
    TITLE "3:cjc046_1848"
    INDEX 01 00:01:40
  TRACK 05 AUDIO
    TITLE "0:"
    INDEX 01 00:02:59
  TRACK 06 AUDIO
    TITLE "4:cjc046_1849"
    INDEX 01 00:02:61
  TRACK 07 AUDIO
    TITLE "0:"
    INDEX 01 00:03:64
  TRACK 08 AUDIO
    TITLE "2:cjc046_1850"
    INDEX 01 00:04:74
  TRACK 09 AUDIO
    TITLE "0:"
    INDEX 01 00:06:16
  TRACK 10 AUDIO
    TITLE "3:cjc046_1851"
    INDEX 01 00:06:47
  TRACK 11 AUDIO
    TITLE "0:"
    INDEX 01 00:08:56
  TRACK 12 AUDIO
    TITLE "4:cjc046_1852"
    INDEX 01 00:08:68
  TRACK 13 AUDIO
    TITLE "0:"
    INDEX 01 00:10:14
  TRACK 14 AUDIO
    TITLE "2:cjc046_1853"
    INDEX 01 00:11:25
  TRACK 15 AUDIO
    TITLE "0:"
    INDEX 01 00:12:22
  TRACK 16 AUDIO
    TITLE "3:cjc046_1854"
    INDEX 01 00:12:48
  TRACK 17 AUDIO
    TITLE "0:"
    INDEX 01 00:13:59
  TRACK 18 AUDIO
    TITLE "4:cjc046_1855"
    INDEX 01 00:13:73
  TRACK 19 AUDIO
    TITLE "0:"
    INDEX 01 00:14:70
  TRACK 20 AUDIO
    TITLE "2:cjc046_1856"
    INDEX 01 00:16:02
  TRACK 21 AUDIO
    TITLE "0:"
    INDEX 01 00:17:08
  TRACK 22 AUDIO
    TITLE "3:cjc046_1857"
    INDEX 01 00:17:35
  TRACK 23 AUDIO
    TITLE "0:"
    INDEX 01 00:19:11
  TRACK 24 AUDIO
    TITLE "4:cjc046_1858"
    INDEX 01 00:19:22
  TRACK 25 AUDIO
    TITLE "0:"
    INDEX 01 00:20:28
  TRACK 26 AUDIO
    TITLE "2:cjc046_1859"
    INDEX 01 00:21:37
  TRACK 27 AUDIO
    TITLE "0:"
    INDEX 01 00:22:46
  TRACK 28 AUDIO
    TITLE "3:cjc046_1860"
    INDEX 01 00:22:66
  TRACK 29 AUDIO
    TITLE "0:"
    INDEX 01 00:23:63
  TRACK 30 AUDIO
    TITLE "4:cjc046_1861"
    INDEX 01 00:24:00
  TRACK 31 AUDIO
    TITLE "0:"
    INDEX 01 00:25:07
  TRACK 32 AUDIO
    TITLE "2:cjc046_1862"
    INDEX 01 00:26:15
  TRACK 33 AUDIO
    TITLE "0:"
    INDEX 01 00:27:20
  TRACK 34 AUDIO
    TITLE "3:cjc046_1863"
    INDEX 01 00:27:45
  TRACK 35 AUDIO
    TITLE "0:"
    INDEX 01 00:28:37
  TRACK 36 AUDIO
    TITLE "4:cjc046_1864"
    INDEX 01 00:28:53
  TRACK 37 AUDIO
    TITLE "0:"
    INDEX 01 00:29:62
  TRACK 38 AUDIO
    TITLE "2:cjc046_1865"
    INDEX 01 00:30:67
  TRACK 39 AUDIO
    TITLE "0:"
    INDEX 01 00:32:00
  TRACK 40 AUDIO
    TITLE "3:cjc046_1866"
    INDEX 01 00:32:27
  TRACK 41 AUDIO
    TITLE "0:"
    INDEX 01 00:33:17
  TRACK 42 AUDIO
    TITLE "4:cjc046_1867"
    INDEX 01 00:33:30
  TRACK 43 AUDIO
    TITLE "0:"
    INDEX 01 00:34:38
  TRACK 44 AUDIO
    TITLE "2:cjc046_1868"
    INDEX 01 00:35:47
  TRACK 45 AUDIO
    TITLE "0:"
    INDEX 01 00:36:56
  TRACK 46 AUDIO
    TITLE "3:cjc046_1869"
    INDEX 01 00:37:01
  TRACK 47 AUDIO
    TITLE "0:"
    INDEX 01 00:37:71
  TRACK 48 AUDIO
    TITLE "4:cjc046_1870"
    INDEX 01 00:38:12
  TRACK 49 AUDIO
    TITLE "0:"
    INDEX 01 00:39:21
  TRACK 50 AUDIO
    TITLE "2:cjc046_1871"
    INDEX 01 00:40:30
  TRACK 51 AUDIO
    TITLE "0:"
    INDEX 01 00:41:26
  TRACK 52 AUDIO
    TITLE "3:cjc046_1872"
    INDEX 01 00:41:55
  TRACK 53 AUDIO
    TITLE "0:"
    INDEX 01 00:42:55
  TRACK 54 AUDIO
    TITLE "4:cjc046_1873"
    INDEX 01 00:42:68
  TRACK 55 AUDIO
    TITLE "0:"
    INDEX 01 00:43:64
  TRACK 56 AUDIO
    TITLE "2:cjc046_1874"
    INDEX 01 00:45:00
  TRACK 57 AUDIO
    TITLE "0:"
    INDEX 01 00:46:15
  TRACK 58 AUDIO
    TITLE "3:cjc046_1875"
    INDEX 01 00:46:45
  TRACK 59 AUDIO
    TITLE "0:"
    INDEX 01 00:48:51
  TRACK 60 AUDIO
    TITLE "4:cjc046_1876"
    INDEX 01 00:48:63
  TRACK 61 AUDIO
    TITLE "0:"
    INDEX 01 00:50:03
